<?xml version="1.0" encoding="UTF-8"?>
<svg xmlns="http://www.w3.org/2000/svg" xmlns:xlink="http://www.w3.org/1999/xlink" width="191px" height="36px" viewBox="0 0 193 36" version="1.1">
<g id="surface1">
<path style=" stroke:none;fill-rule:evenodd;fill:rgb(100%,100%,100%);fill-opacity:1;" d="M 2.550781 4.867188 L 32.875 4.867188 L 30.582031 14.328125 L 23.722656 14.328125 L 24.34375 11.277344 L 21.59375 11.277344 L 16.878906 29.589844 L 21.300781 29.589844 L 20.070312 35.230469 L 1.484375 35.230469 L 1.542969 35.082031 L 1.484375 35.082031 L 3.320312 29.589844 L 6.660156 29.589844 L 10.933594 11.128906 L 8.035156 11.128906 L 7.578125 12.636719 L 7.285156 14.179688 L 0.257812 14.179688 Z M 51.332031 4.867188 L 49.664062 10.507812 L 47.074219 10.507812 L 47.074219 25.605469 L 56.066406 10.195312 L 53 10.195312 L 54.835938 4.867188 L 69.144531 4.867188 L 49.808594 35.0625 L 37.921875 35.0625 L 36.398438 10.359375 L 33.792969 10.359375 L 33.847656 10.195312 L 33.792969 10.195312 L 35.316406 4.867188 Z M 70.851562 28.820312 L 70.832031 28.820312 C 70.832031 28.855469 70.960938 28.929688 72.449219 28.964844 L 73.972656 28.964844 C 76.648438 28.964844 77.695312 28.210938 78.042969 27.3125 L 78.042969 27.257812 L 78.082031 27.148438 L 78.082031 27.109375 L 78.117188 27.109375 L 78.117188 26.925781 L 78.136719 26.871094 L 78.152344 26.816406 L 78.152344 26.230469 L 78.136719 26.171875 L 78.136719 26.15625 C 78.007812 25.21875 77.253906 24.226562 74.816406 22.867188 C 71.917969 21.488281 67.953125 20.128906 67.953125 14.179688 C 67.953125 14.070312 67.953125 13.976562 67.953125 13.902344 L 67.972656 13.628906 L 67.992188 13.351562 L 68.027344 13.097656 L 68.082031 12.855469 C 69.074219 7.75 75.789062 4.261719 83.65625 4.261719 C 89.328125 4.261719 92.902344 5.363281 93.234375 5.457031 L 93.234375 5.472656 L 93.253906 5.472656 L 93.253906 5.492188 C 91.269531 7.75 90.976562 13.867188 90.976562 13.867188 L 85.164062 13.867188 L 85.164062 11.570312 C 85.164062 11.570312 83.65625 10.964844 82.867188 10.964844 L 82.757812 10.964844 C 81.859375 11.019531 79.070312 11.480469 79.054688 13.40625 L 79.054688 13.5 L 79.070312 13.609375 L 79.070312 13.703125 C 79.21875 15.851562 83.035156 16.917969 84.558594 17.835938 C 86.078125 18.898438 89.289062 20.277344 89.289062 24.703125 C 89.289062 29.128906 84.410156 35.835938 74.210938 35.835938 C 63.992188 35.835938 62.46875 34.328125 62.46875 34.328125 L 64.90625 25.769531 L 70.851562 25.769531 Z M 70.851562 28.820312 "/>
<path style=" stroke:none;fill-rule:evenodd;fill:rgb(100%,100%,100%);fill-opacity:1;" d="M 162.875 28.984375 L 160.5625 27.605469 C 160.5625 27.605469 155.554688 29.128906 150.988281 28.523438 C 143.355469 27.898438 140.621094 25.933594 140.621094 25.933594 L 140.605469 25.933594 C 140.382812 26.117188 137.960938 27.917969 133.300781 28.210938 C 128.421875 28.523438 124.460938 27.898438 124.460938 27.898438 C 124.460938 27.898438 119.890625 32.328125 111.507812 34.457031 C 104.957031 36.3125 99.179688 33.851562 99.179688 33.851562 L 105.417969 32.328125 L 105.417969 33.703125 L 105.453125 33.703125 C 105.894531 33.648438 110.644531 33.117188 114.570312 30.507812 C 117.140625 28.820312 120.203125 24.703125 120.203125 24.703125 C 120.203125 24.703125 122.183594 24.390625 123.707031 23.179688 C 125.082031 22.113281 127.210938 19.066406 128.421875 16.769531 C 129.796875 14.640625 131.78125 13.113281 134.660156 12.820312 C 137.578125 12.65625 139.558594 14.015625 141.226562 14.640625 C 143.0625 15.246094 144.585938 16.308594 148.089844 16.308594 C 152.050781 16.308594 155.847656 14.328125 160.289062 10.671875 C 164.691406 6.996094 167.902344 5.949219 170.65625 5.949219 C 172.324219 6.097656 173.535156 6.246094 173.535156 6.246094 L 175.515625 3.800781 L 175.976562 7.917969 L 179.296875 11.3125 L 182.691406 14.640625 L 182.617188 14.730469 L 182.691406 14.785156 L 181.460938 16.308594 L 177.058594 16.308594 L 177.058594 15.390625 C 177.058594 15.390625 175.058594 13.867188 173.078125 13.703125 C 171.09375 13.703125 169.738281 15.097656 169.738281 16.457031 L 169.71875 16.53125 L 169.71875 16.734375 L 169.738281 16.804688 L 169.738281 16.859375 L 169.753906 16.917969 L 169.773438 16.988281 L 169.792969 17.0625 L 169.828125 17.136719 L 169.847656 17.191406 L 169.882812 17.265625 L 169.902344 17.339844 L 169.9375 17.414062 C 170.507812 18.550781 172.214844 19.78125 173.992188 20.738281 C 175.058594 21.398438 176.398438 22.296875 177.773438 23.234375 C 180.230469 24.851562 182.746094 26.578125 183.898438 27.460938 C 187.550781 30.195312 191.515625 33.851562 192.121094 35.082031 L 186.027344 34.164062 L 186.488281 32.949219 C 185.753906 32.234375 182.269531 29.1875 176.46875 27.753906 C 176.359375 27.734375 176.25 27.699219 176.140625 27.679688 C 176.03125 27.644531 175.917969 27.625 175.828125 27.605469 C 166.378906 25.621094 162.875 28.984375 162.875 28.984375 Z M 133.046875 11.738281 L 132.789062 11.753906 L 132.550781 11.773438 L 132.292969 11.792969 L 132.054688 11.808594 L 131.796875 11.847656 L 131.558594 11.882812 L 131.320312 11.921875 L 131.082031 11.976562 L 130.824219 12.03125 L 130.605469 12.085938 L 130.128906 12.234375 L 129.925781 12.304688 L 129.6875 12.359375 C 126.035156 13.609375 123.121094 16.199219 120.476562 16.179688 L 120.203125 16.144531 C 119.46875 16.144531 118.828125 15.925781 118.222656 15.558594 C 116.480469 14.566406 115.101562 12.65625 113.046875 11.921875 L 112.882812 11.882812 L 112.734375 11.847656 L 112.589844 11.808594 L 112.441406 11.773438 L 112.277344 11.738281 C 113.046875 11.738281 114.257812 11.277344 114.257812 11.277344 L 114.09375 11.113281 L 114.058594 11.074219 L 113.984375 11.019531 L 113.945312 10.984375 L 113.890625 10.929688 L 113.855469 10.890625 L 113.820312 10.835938 L 113.746094 10.800781 L 113.652344 10.707031 C 112.734375 9.972656 111.285156 9.347656 107.398438 9.605469 L 107.582031 9.441406 L 107.398438 9.441406 C 108.847656 8.265625 110.257812 7.824219 111.652344 7.824219 C 115.636719 7.734375 119.230469 11.515625 121.835938 12.140625 L 122.019531 12.160156 L 122.183594 12.195312 C 125.230469 12.488281 125.375 11.128906 128.273438 10.964844 L 128.402344 10.964844 C 128.625 10.945312 128.824219 10.929688 129.027344 10.929688 L 129.359375 10.929688 C 131.46875 10.929688 133.101562 11.664062 133.285156 11.71875 L 133.285156 11.738281 Z M 145.042969 13.425781 C 145.042969 13.425781 148.089844 13.425781 150.527344 12.195312 C 152.289062 11.1875 154.4375 8.355469 154.636719 8.101562 L 154.636719 8.0625 L 152.070312 8.375 L 152.234375 8.210938 L 152.070312 8.230469 C 153.976562 6.445312 157.609375 4.535156 157.847656 4.425781 L 157.847656 4.40625 L 156.785156 3.34375 C 156.785156 3.34375 161.042969 -0.0195312 167.445312 0.148438 C 171.867188 0.292969 175.074219 3.34375 175.074219 3.34375 L 173.40625 5.03125 C 173.40625 5.03125 173.078125 4.40625 169.570312 4.261719 C 165.773438 4.261719 162.875 6.097656 160.894531 7.308594 C 158.914062 8.539062 156.785156 10.359375 153.28125 12.488281 C 149.738281 14.710938 145.320312 13.5 145.0625 13.425781 Z M 154.636719 8.0625 L 154.621094 8.0625 Z M 133.300781 11.738281 L 133.285156 11.738281 Z M 133.300781 11.738281 "/>
</g>
</svg>
